%TF.GenerationSoftware,KiCad,Pcbnew,10.0.3*%
%TF.CreationDate,2026-06-08T19:15:45+01:00*%
%TF.ProjectId,hackpad,6861636b-7061-4642-9e6b-696361645f70,rev?*%
%TF.SameCoordinates,Original*%
%TF.FileFunction,Copper,L2,Bot*%
%TF.FilePolarity,Positive*%
%FSLAX46Y46*%
G04 Gerber Fmt 4.6, Leading zero omitted, Abs format (unit mm)*
G04 Created by KiCad (PCBNEW 10.0.3) date 2026-06-08 19:15:45*
%MOMM*%
%LPD*%
G01*
G04 APERTURE LIST*
G04 Aperture macros list*
%AMRoundRect*
0 Rectangle with rounded corners*
0 $1 Rounding radius*
0 $2 $3 $4 $5 $6 $7 $8 $9 X,Y pos of 4 corners*
0 Add a 4 corners polygon primitive as box body*
4,1,4,$2,$3,$4,$5,$6,$7,$8,$9,$2,$3,0*
0 Add four circle primitives for the rounded corners*
1,1,$1+$1,$2,$3*
1,1,$1+$1,$4,$5*
1,1,$1+$1,$6,$7*
1,1,$1+$1,$8,$9*
0 Add four rect primitives between the rounded corners*
20,1,$1+$1,$2,$3,$4,$5,0*
20,1,$1+$1,$4,$5,$6,$7,0*
20,1,$1+$1,$6,$7,$8,$9,0*
20,1,$1+$1,$8,$9,$2,$3,0*%
G04 Aperture macros list end*
%TA.AperFunction,ComponentPad*%
%ADD10R,3.500000X1.700000*%
%TD*%
%TA.AperFunction,ComponentPad*%
%ADD11O,3.600000X1.700000*%
%TD*%
%TA.AperFunction,ComponentPad*%
%ADD12O,3.700000X1.700000*%
%TD*%
%TA.AperFunction,ComponentPad*%
%ADD13RoundRect,0.170000X0.680000X-0.680000X0.680000X0.680000X-0.680000X0.680000X-0.680000X-0.680000X0*%
%TD*%
%TA.AperFunction,ComponentPad*%
%ADD14C,1.700000*%
%TD*%
%TA.AperFunction,ComponentPad*%
%ADD15C,2.200000*%
%TD*%
%TA.AperFunction,ViaPad*%
%ADD16C,0.600000*%
%TD*%
%TA.AperFunction,Conductor*%
%ADD17C,0.200000*%
%TD*%
G04 APERTURE END LIST*
D10*
%TO.P,U1,1,PA02_A0_D0_1*%
%TO.N,unconnected-(U1-PA02_A0_D0-Pad1)*%
X156559000Y-59367530D03*
D11*
%TO.P,U1,2,PA4_A1_D1_2*%
%TO.N,unconnected-(U1-PA4_A1_D1-Pad2)*%
X156559000Y-61907530D03*
%TO.P,U1,3,PA10_A2_D2_3*%
%TO.N,Net-(U1-PA10_A2_D2)*%
X156559000Y-64447530D03*
%TO.P,U1,4,PA11_A3_D3_4*%
%TO.N,Net-(U1-PA11_A3_D3)*%
X156559000Y-66987530D03*
%TO.P,U1,5,PA8_A4_D4_SDA_5*%
%TO.N,Net-(J1-Pin_4)*%
X156559000Y-69527530D03*
%TO.P,U1,6,PA9_A5_D5_SCL_6*%
%TO.N,Net-(J1-Pin_3)*%
X156559000Y-72067530D03*
%TO.P,U1,7,PB08_A6_D6_TX_7*%
%TO.N,Net-(U1-PB08_A6_D6_TX)*%
X156559000Y-74607530D03*
%TO.P,U1,8,PB09_A7_D7_RX_8*%
%TO.N,Net-(U1-PB09_A7_D7_RX)*%
X139309000Y-74607530D03*
%TO.P,U1,9,PA7_A8_D8_SCK_9*%
%TO.N,Net-(U1-PA7_A8_D8_SCK)*%
X139309000Y-72067530D03*
%TO.P,U1,10,PA5_A9_D9_MISO_10*%
%TO.N,Net-(U1-PA5_A9_D9_MISO)*%
X139309000Y-69527530D03*
D12*
%TO.P,U1,11,PA6_A10_D10_MOSI_11*%
%TO.N,Net-(U1-PA6_A10_D10_MOSI)*%
X139309000Y-66987530D03*
%TO.P,U1,12,3V3_12*%
%TO.N,Net-(J1-Pin_2)*%
X139309000Y-64447530D03*
%TO.P,U1,13,GND_13*%
%TO.N,GND*%
X139309000Y-61907530D03*
%TO.P,U1,14,5V_14*%
%TO.N,unconnected-(U1-5V-Pad14)*%
X139309000Y-59367530D03*
%TD*%
D13*
%TO.P,J1,1,GND_1*%
%TO.N,GND*%
X125500000Y-113500000D03*
D14*
%TO.P,J1,2,Pin_2_2*%
%TO.N,Net-(J1-Pin_2)*%
X125500000Y-110960000D03*
%TO.P,J1,3,Pin_3_3*%
%TO.N,Net-(J1-Pin_3)*%
X125500000Y-108420000D03*
%TO.P,J1,4,Pin_4_4*%
%TO.N,Net-(J1-Pin_4)*%
X125500000Y-105880000D03*
%TD*%
D15*
%TO.P,SW7,1,1_1*%
%TO.N,Net-(U1-PA10_A2_D2)*%
X131175000Y-87145000D03*
%TO.P,SW7,2,2_2*%
%TO.N,GND*%
X124825000Y-89685000D03*
%TD*%
%TO.P,SW6,1,1_1*%
%TO.N,Net-(U1-PA11_A3_D3)*%
X131175000Y-72055000D03*
%TO.P,SW6,2,2_2*%
%TO.N,GND*%
X124825000Y-74595000D03*
%TD*%
%TO.P,SW5,1,1_1*%
%TO.N,Net-(U1-PB08_A6_D6_TX)*%
X131175000Y-56965000D03*
%TO.P,SW5,2,2_2*%
%TO.N,GND*%
X124825000Y-59505000D03*
%TD*%
%TO.P,SW4,1,1_1*%
%TO.N,Net-(U1-PB09_A7_D7_RX)*%
X116085000Y-102235000D03*
%TO.P,SW4,2,2_2*%
%TO.N,GND*%
X109735000Y-104775000D03*
%TD*%
%TO.P,SW3,1,1_1*%
%TO.N,Net-(U1-PA7_A8_D8_SCK)*%
X116085000Y-87145000D03*
%TO.P,SW3,2,2_2*%
%TO.N,GND*%
X109735000Y-89685000D03*
%TD*%
%TO.P,SW2,1,1_1*%
%TO.N,Net-(U1-PA5_A9_D9_MISO)*%
X116085000Y-72055000D03*
%TO.P,SW2,2,2_2*%
%TO.N,GND*%
X109735000Y-74595000D03*
%TD*%
%TO.P,SW1,1,1_1*%
%TO.N,Net-(U1-PA6_A10_D10_MOSI)*%
X116085000Y-56965000D03*
%TO.P,SW1,2,2_2*%
%TO.N,GND*%
X109735000Y-59505000D03*
%TD*%
D16*
%TO.N,Net-(J1-Pin_4)*%
X152000000Y-78900000D03*
X152000000Y-80600000D03*
%TO.N,Net-(J1-Pin_3)*%
X153500000Y-81000000D03*
X153500000Y-78900000D03*
%TO.N,Net-(J1-Pin_2)*%
X145500000Y-70500000D03*
X135500000Y-78000000D03*
X138500000Y-78000000D03*
X146500000Y-72000000D03*
%TO.N,Net-(U1-PA10_A2_D2)*%
X149000000Y-76500000D03*
X151500000Y-68000000D03*
X152500000Y-65000000D03*
X147000000Y-81000000D03*
%TO.N,Net-(U1-PB09_A7_D7_RX)*%
X146500000Y-68000000D03*
X149500000Y-65500000D03*
%TD*%
%TO.N,Net-(J1-Pin_4)*%
D17*
X152000000Y-80600000D02*
X152000000Y-78900000D01*
%TO.N,Net-(J1-Pin_3)*%
X153500000Y-81000000D02*
X153500000Y-78900000D01*
%TO.N,Net-(J1-Pin_2)*%
X146500000Y-71500000D02*
X145500000Y-70500000D01*
X146500000Y-72000000D02*
X146500000Y-71500000D01*
X135500000Y-78000000D02*
X138500000Y-78000000D01*
%TO.N,Net-(U1-PA10_A2_D2)*%
X152500000Y-67000000D02*
X152500000Y-65000000D01*
X151500000Y-68000000D02*
X152500000Y-67000000D01*
X148500000Y-77000000D02*
X149000000Y-76500000D01*
X148500000Y-78000000D02*
X148500000Y-77000000D01*
X148000000Y-78500000D02*
X148500000Y-78000000D01*
X148000000Y-80000000D02*
X148000000Y-78500000D01*
X147000000Y-81000000D02*
X148000000Y-80000000D01*
%TO.N,Net-(U1-PB09_A7_D7_RX)*%
X147000000Y-68000000D02*
X146500000Y-68000000D01*
X149500000Y-65500000D02*
X147000000Y-68000000D01*
%TD*%
M02*
