%TF.GenerationSoftware,KiCad,Pcbnew,10.0.3*%
%TF.CreationDate,2026-06-08T19:15:45+01:00*%
%TF.ProjectId,hackpad,6861636b-7061-4642-9e6b-696361645f70,rev?*%
%TF.SameCoordinates,Original*%
%TF.FileFunction,Soldermask,Top*%
%TF.FilePolarity,Negative*%
%FSLAX46Y46*%
G04 Gerber Fmt 4.6, Leading zero omitted, Abs format (unit mm)*
G04 Created by KiCad (PCBNEW 10.0.3) date 2026-06-08 19:15:45*
%MOMM*%
%LPD*%
G01*
G04 APERTURE LIST*
G04 Aperture macros list*
%AMRoundRect*
0 Rectangle with rounded corners*
0 $1 Rounding radius*
0 $2 $3 $4 $5 $6 $7 $8 $9 X,Y pos of 4 corners*
0 Add a 4 corners polygon primitive as box body*
4,1,4,$2,$3,$4,$5,$6,$7,$8,$9,$2,$3,0*
0 Add four circle primitives for the rounded corners*
1,1,$1+$1,$2,$3*
1,1,$1+$1,$4,$5*
1,1,$1+$1,$6,$7*
1,1,$1+$1,$8,$9*
0 Add four rect primitives between the rounded corners*
20,1,$1+$1,$2,$3,$4,$5,0*
20,1,$1+$1,$4,$5,$6,$7,0*
20,1,$1+$1,$6,$7,$8,$9,0*
20,1,$1+$1,$8,$9,$2,$3,0*%
G04 Aperture macros list end*
%ADD10R,3.500000X1.700000*%
%ADD11O,3.600000X1.700000*%
%ADD12O,3.700000X1.700000*%
%ADD13RoundRect,0.170000X0.680000X-0.680000X0.680000X0.680000X-0.680000X0.680000X-0.680000X-0.680000X0*%
%ADD14C,1.700000*%
%ADD15C,4.000000*%
%ADD16C,2.200000*%
G04 APERTURE END LIST*
D10*
%TO.C,U1*%
X156559000Y-59367530D03*
D11*
X156559000Y-61907530D03*
X156559000Y-64447530D03*
X156559000Y-66987530D03*
X156559000Y-69527530D03*
X156559000Y-72067530D03*
X156559000Y-74607530D03*
X139309000Y-74607530D03*
X139309000Y-72067530D03*
X139309000Y-69527530D03*
D12*
X139309000Y-66987530D03*
X139309000Y-64447530D03*
X139309000Y-61907530D03*
X139309000Y-59367530D03*
%TD*%
D13*
%TO.C,J1*%
X125500000Y-113500000D03*
D14*
X125500000Y-110960000D03*
X125500000Y-108420000D03*
X125500000Y-105880000D03*
%TD*%
%TO.C,SW7*%
X123555000Y-92225000D03*
D15*
X128635000Y-92225000D03*
D14*
X133715000Y-92225000D03*
D16*
X131175000Y-87145000D03*
X124825000Y-89685000D03*
%TD*%
D14*
%TO.C,SW6*%
X123555000Y-77135000D03*
D15*
X128635000Y-77135000D03*
D14*
X133715000Y-77135000D03*
D16*
X131175000Y-72055000D03*
X124825000Y-74595000D03*
%TD*%
D14*
%TO.C,SW5*%
X123555000Y-62045000D03*
D15*
X128635000Y-62045000D03*
D14*
X133715000Y-62045000D03*
D16*
X131175000Y-56965000D03*
X124825000Y-59505000D03*
%TD*%
D14*
%TO.C,SW4*%
X108465000Y-107315000D03*
D15*
X113545000Y-107315000D03*
D14*
X118625000Y-107315000D03*
D16*
X116085000Y-102235000D03*
X109735000Y-104775000D03*
%TD*%
D14*
%TO.C,SW3*%
X108465000Y-92225000D03*
D15*
X113545000Y-92225000D03*
D14*
X118625000Y-92225000D03*
D16*
X116085000Y-87145000D03*
X109735000Y-89685000D03*
%TD*%
D14*
%TO.C,SW2*%
X108465000Y-77135000D03*
D15*
X113545000Y-77135000D03*
D14*
X118625000Y-77135000D03*
D16*
X116085000Y-72055000D03*
X109735000Y-74595000D03*
%TD*%
D14*
%TO.C,SW1*%
X108465000Y-62045000D03*
D15*
X113545000Y-62045000D03*
D14*
X118625000Y-62045000D03*
D16*
X116085000Y-56965000D03*
X109735000Y-59505000D03*
%TD*%
M02*
