%TF.GenerationSoftware,KiCad,Pcbnew,10.0.3*%
%TF.CreationDate,2026-06-08T19:15:45+01:00*%
%TF.ProjectId,hackpad,6861636b-7061-4642-9e6b-696361645f70,rev?*%
%TF.SameCoordinates,Original*%
%TF.FileFunction,Legend,Top*%
%TF.FilePolarity,Positive*%
%FSLAX46Y46*%
G04 Gerber Fmt 4.6, Leading zero omitted, Abs format (unit mm)*
G04 Created by KiCad (PCBNEW 10.0.3) date 2026-06-08 19:15:45*
%MOMM*%
%LPD*%
G01*
G04 APERTURE LIST*
%ADD10C,0.150000*%
%ADD11C,0.120000*%
G04 APERTURE END LIST*
D10*
X122454819Y-109833333D02*
X123169104Y-109833333D01*
X123169104Y-109833333D02*
X123311961Y-109880952D01*
X123311961Y-109880952D02*
X123407200Y-109976190D01*
X123407200Y-109976190D02*
X123454819Y-110119047D01*
X123454819Y-110119047D02*
X123454819Y-110214285D01*
X123454819Y-108833333D02*
X123454819Y-109404761D01*
X123454819Y-109119047D02*
X122454819Y-109119047D01*
X122454819Y-109119047D02*
X122597676Y-109214285D01*
X122597676Y-109214285D02*
X122692914Y-109309523D01*
X122692914Y-109309523D02*
X122740533Y-109404761D01*
X127301667Y-84758200D02*
X127444524Y-84805819D01*
X127444524Y-84805819D02*
X127682619Y-84805819D01*
X127682619Y-84805819D02*
X127777857Y-84758200D01*
X127777857Y-84758200D02*
X127825476Y-84710580D01*
X127825476Y-84710580D02*
X127873095Y-84615342D01*
X127873095Y-84615342D02*
X127873095Y-84520104D01*
X127873095Y-84520104D02*
X127825476Y-84424866D01*
X127825476Y-84424866D02*
X127777857Y-84377247D01*
X127777857Y-84377247D02*
X127682619Y-84329628D01*
X127682619Y-84329628D02*
X127492143Y-84282009D01*
X127492143Y-84282009D02*
X127396905Y-84234390D01*
X127396905Y-84234390D02*
X127349286Y-84186771D01*
X127349286Y-84186771D02*
X127301667Y-84091533D01*
X127301667Y-84091533D02*
X127301667Y-83996295D01*
X127301667Y-83996295D02*
X127349286Y-83901057D01*
X127349286Y-83901057D02*
X127396905Y-83853438D01*
X127396905Y-83853438D02*
X127492143Y-83805819D01*
X127492143Y-83805819D02*
X127730238Y-83805819D01*
X127730238Y-83805819D02*
X127873095Y-83853438D01*
X128206429Y-83805819D02*
X128444524Y-84805819D01*
X128444524Y-84805819D02*
X128635000Y-84091533D01*
X128635000Y-84091533D02*
X128825476Y-84805819D01*
X128825476Y-84805819D02*
X129063572Y-83805819D01*
X129349286Y-83805819D02*
X130015952Y-83805819D01*
X130015952Y-83805819D02*
X129587381Y-84805819D01*
X127301667Y-69668200D02*
X127444524Y-69715819D01*
X127444524Y-69715819D02*
X127682619Y-69715819D01*
X127682619Y-69715819D02*
X127777857Y-69668200D01*
X127777857Y-69668200D02*
X127825476Y-69620580D01*
X127825476Y-69620580D02*
X127873095Y-69525342D01*
X127873095Y-69525342D02*
X127873095Y-69430104D01*
X127873095Y-69430104D02*
X127825476Y-69334866D01*
X127825476Y-69334866D02*
X127777857Y-69287247D01*
X127777857Y-69287247D02*
X127682619Y-69239628D01*
X127682619Y-69239628D02*
X127492143Y-69192009D01*
X127492143Y-69192009D02*
X127396905Y-69144390D01*
X127396905Y-69144390D02*
X127349286Y-69096771D01*
X127349286Y-69096771D02*
X127301667Y-69001533D01*
X127301667Y-69001533D02*
X127301667Y-68906295D01*
X127301667Y-68906295D02*
X127349286Y-68811057D01*
X127349286Y-68811057D02*
X127396905Y-68763438D01*
X127396905Y-68763438D02*
X127492143Y-68715819D01*
X127492143Y-68715819D02*
X127730238Y-68715819D01*
X127730238Y-68715819D02*
X127873095Y-68763438D01*
X128206429Y-68715819D02*
X128444524Y-69715819D01*
X128444524Y-69715819D02*
X128635000Y-69001533D01*
X128635000Y-69001533D02*
X128825476Y-69715819D01*
X128825476Y-69715819D02*
X129063572Y-68715819D01*
X129873095Y-68715819D02*
X129682619Y-68715819D01*
X129682619Y-68715819D02*
X129587381Y-68763438D01*
X129587381Y-68763438D02*
X129539762Y-68811057D01*
X129539762Y-68811057D02*
X129444524Y-68953914D01*
X129444524Y-68953914D02*
X129396905Y-69144390D01*
X129396905Y-69144390D02*
X129396905Y-69525342D01*
X129396905Y-69525342D02*
X129444524Y-69620580D01*
X129444524Y-69620580D02*
X129492143Y-69668200D01*
X129492143Y-69668200D02*
X129587381Y-69715819D01*
X129587381Y-69715819D02*
X129777857Y-69715819D01*
X129777857Y-69715819D02*
X129873095Y-69668200D01*
X129873095Y-69668200D02*
X129920714Y-69620580D01*
X129920714Y-69620580D02*
X129968333Y-69525342D01*
X129968333Y-69525342D02*
X129968333Y-69287247D01*
X129968333Y-69287247D02*
X129920714Y-69192009D01*
X129920714Y-69192009D02*
X129873095Y-69144390D01*
X129873095Y-69144390D02*
X129777857Y-69096771D01*
X129777857Y-69096771D02*
X129587381Y-69096771D01*
X129587381Y-69096771D02*
X129492143Y-69144390D01*
X129492143Y-69144390D02*
X129444524Y-69192009D01*
X129444524Y-69192009D02*
X129396905Y-69287247D01*
X127301667Y-54578200D02*
X127444524Y-54625819D01*
X127444524Y-54625819D02*
X127682619Y-54625819D01*
X127682619Y-54625819D02*
X127777857Y-54578200D01*
X127777857Y-54578200D02*
X127825476Y-54530580D01*
X127825476Y-54530580D02*
X127873095Y-54435342D01*
X127873095Y-54435342D02*
X127873095Y-54340104D01*
X127873095Y-54340104D02*
X127825476Y-54244866D01*
X127825476Y-54244866D02*
X127777857Y-54197247D01*
X127777857Y-54197247D02*
X127682619Y-54149628D01*
X127682619Y-54149628D02*
X127492143Y-54102009D01*
X127492143Y-54102009D02*
X127396905Y-54054390D01*
X127396905Y-54054390D02*
X127349286Y-54006771D01*
X127349286Y-54006771D02*
X127301667Y-53911533D01*
X127301667Y-53911533D02*
X127301667Y-53816295D01*
X127301667Y-53816295D02*
X127349286Y-53721057D01*
X127349286Y-53721057D02*
X127396905Y-53673438D01*
X127396905Y-53673438D02*
X127492143Y-53625819D01*
X127492143Y-53625819D02*
X127730238Y-53625819D01*
X127730238Y-53625819D02*
X127873095Y-53673438D01*
X128206429Y-53625819D02*
X128444524Y-54625819D01*
X128444524Y-54625819D02*
X128635000Y-53911533D01*
X128635000Y-53911533D02*
X128825476Y-54625819D01*
X128825476Y-54625819D02*
X129063572Y-53625819D01*
X129920714Y-53625819D02*
X129444524Y-53625819D01*
X129444524Y-53625819D02*
X129396905Y-54102009D01*
X129396905Y-54102009D02*
X129444524Y-54054390D01*
X129444524Y-54054390D02*
X129539762Y-54006771D01*
X129539762Y-54006771D02*
X129777857Y-54006771D01*
X129777857Y-54006771D02*
X129873095Y-54054390D01*
X129873095Y-54054390D02*
X129920714Y-54102009D01*
X129920714Y-54102009D02*
X129968333Y-54197247D01*
X129968333Y-54197247D02*
X129968333Y-54435342D01*
X129968333Y-54435342D02*
X129920714Y-54530580D01*
X129920714Y-54530580D02*
X129873095Y-54578200D01*
X129873095Y-54578200D02*
X129777857Y-54625819D01*
X129777857Y-54625819D02*
X129539762Y-54625819D01*
X129539762Y-54625819D02*
X129444524Y-54578200D01*
X129444524Y-54578200D02*
X129396905Y-54530580D01*
X112211667Y-99848200D02*
X112354524Y-99895819D01*
X112354524Y-99895819D02*
X112592619Y-99895819D01*
X112592619Y-99895819D02*
X112687857Y-99848200D01*
X112687857Y-99848200D02*
X112735476Y-99800580D01*
X112735476Y-99800580D02*
X112783095Y-99705342D01*
X112783095Y-99705342D02*
X112783095Y-99610104D01*
X112783095Y-99610104D02*
X112735476Y-99514866D01*
X112735476Y-99514866D02*
X112687857Y-99467247D01*
X112687857Y-99467247D02*
X112592619Y-99419628D01*
X112592619Y-99419628D02*
X112402143Y-99372009D01*
X112402143Y-99372009D02*
X112306905Y-99324390D01*
X112306905Y-99324390D02*
X112259286Y-99276771D01*
X112259286Y-99276771D02*
X112211667Y-99181533D01*
X112211667Y-99181533D02*
X112211667Y-99086295D01*
X112211667Y-99086295D02*
X112259286Y-98991057D01*
X112259286Y-98991057D02*
X112306905Y-98943438D01*
X112306905Y-98943438D02*
X112402143Y-98895819D01*
X112402143Y-98895819D02*
X112640238Y-98895819D01*
X112640238Y-98895819D02*
X112783095Y-98943438D01*
X113116429Y-98895819D02*
X113354524Y-99895819D01*
X113354524Y-99895819D02*
X113545000Y-99181533D01*
X113545000Y-99181533D02*
X113735476Y-99895819D01*
X113735476Y-99895819D02*
X113973572Y-98895819D01*
X114783095Y-99229152D02*
X114783095Y-99895819D01*
X114545000Y-98848200D02*
X114306905Y-99562485D01*
X114306905Y-99562485D02*
X114925952Y-99562485D01*
X112211667Y-84758200D02*
X112354524Y-84805819D01*
X112354524Y-84805819D02*
X112592619Y-84805819D01*
X112592619Y-84805819D02*
X112687857Y-84758200D01*
X112687857Y-84758200D02*
X112735476Y-84710580D01*
X112735476Y-84710580D02*
X112783095Y-84615342D01*
X112783095Y-84615342D02*
X112783095Y-84520104D01*
X112783095Y-84520104D02*
X112735476Y-84424866D01*
X112735476Y-84424866D02*
X112687857Y-84377247D01*
X112687857Y-84377247D02*
X112592619Y-84329628D01*
X112592619Y-84329628D02*
X112402143Y-84282009D01*
X112402143Y-84282009D02*
X112306905Y-84234390D01*
X112306905Y-84234390D02*
X112259286Y-84186771D01*
X112259286Y-84186771D02*
X112211667Y-84091533D01*
X112211667Y-84091533D02*
X112211667Y-83996295D01*
X112211667Y-83996295D02*
X112259286Y-83901057D01*
X112259286Y-83901057D02*
X112306905Y-83853438D01*
X112306905Y-83853438D02*
X112402143Y-83805819D01*
X112402143Y-83805819D02*
X112640238Y-83805819D01*
X112640238Y-83805819D02*
X112783095Y-83853438D01*
X113116429Y-83805819D02*
X113354524Y-84805819D01*
X113354524Y-84805819D02*
X113545000Y-84091533D01*
X113545000Y-84091533D02*
X113735476Y-84805819D01*
X113735476Y-84805819D02*
X113973572Y-83805819D01*
X114259286Y-83805819D02*
X114878333Y-83805819D01*
X114878333Y-83805819D02*
X114545000Y-84186771D01*
X114545000Y-84186771D02*
X114687857Y-84186771D01*
X114687857Y-84186771D02*
X114783095Y-84234390D01*
X114783095Y-84234390D02*
X114830714Y-84282009D01*
X114830714Y-84282009D02*
X114878333Y-84377247D01*
X114878333Y-84377247D02*
X114878333Y-84615342D01*
X114878333Y-84615342D02*
X114830714Y-84710580D01*
X114830714Y-84710580D02*
X114783095Y-84758200D01*
X114783095Y-84758200D02*
X114687857Y-84805819D01*
X114687857Y-84805819D02*
X114402143Y-84805819D01*
X114402143Y-84805819D02*
X114306905Y-84758200D01*
X114306905Y-84758200D02*
X114259286Y-84710580D01*
X112211667Y-69668200D02*
X112354524Y-69715819D01*
X112354524Y-69715819D02*
X112592619Y-69715819D01*
X112592619Y-69715819D02*
X112687857Y-69668200D01*
X112687857Y-69668200D02*
X112735476Y-69620580D01*
X112735476Y-69620580D02*
X112783095Y-69525342D01*
X112783095Y-69525342D02*
X112783095Y-69430104D01*
X112783095Y-69430104D02*
X112735476Y-69334866D01*
X112735476Y-69334866D02*
X112687857Y-69287247D01*
X112687857Y-69287247D02*
X112592619Y-69239628D01*
X112592619Y-69239628D02*
X112402143Y-69192009D01*
X112402143Y-69192009D02*
X112306905Y-69144390D01*
X112306905Y-69144390D02*
X112259286Y-69096771D01*
X112259286Y-69096771D02*
X112211667Y-69001533D01*
X112211667Y-69001533D02*
X112211667Y-68906295D01*
X112211667Y-68906295D02*
X112259286Y-68811057D01*
X112259286Y-68811057D02*
X112306905Y-68763438D01*
X112306905Y-68763438D02*
X112402143Y-68715819D01*
X112402143Y-68715819D02*
X112640238Y-68715819D01*
X112640238Y-68715819D02*
X112783095Y-68763438D01*
X113116429Y-68715819D02*
X113354524Y-69715819D01*
X113354524Y-69715819D02*
X113545000Y-69001533D01*
X113545000Y-69001533D02*
X113735476Y-69715819D01*
X113735476Y-69715819D02*
X113973572Y-68715819D01*
X114306905Y-68811057D02*
X114354524Y-68763438D01*
X114354524Y-68763438D02*
X114449762Y-68715819D01*
X114449762Y-68715819D02*
X114687857Y-68715819D01*
X114687857Y-68715819D02*
X114783095Y-68763438D01*
X114783095Y-68763438D02*
X114830714Y-68811057D01*
X114830714Y-68811057D02*
X114878333Y-68906295D01*
X114878333Y-68906295D02*
X114878333Y-69001533D01*
X114878333Y-69001533D02*
X114830714Y-69144390D01*
X114830714Y-69144390D02*
X114259286Y-69715819D01*
X114259286Y-69715819D02*
X114878333Y-69715819D01*
X112211667Y-54578200D02*
X112354524Y-54625819D01*
X112354524Y-54625819D02*
X112592619Y-54625819D01*
X112592619Y-54625819D02*
X112687857Y-54578200D01*
X112687857Y-54578200D02*
X112735476Y-54530580D01*
X112735476Y-54530580D02*
X112783095Y-54435342D01*
X112783095Y-54435342D02*
X112783095Y-54340104D01*
X112783095Y-54340104D02*
X112735476Y-54244866D01*
X112735476Y-54244866D02*
X112687857Y-54197247D01*
X112687857Y-54197247D02*
X112592619Y-54149628D01*
X112592619Y-54149628D02*
X112402143Y-54102009D01*
X112402143Y-54102009D02*
X112306905Y-54054390D01*
X112306905Y-54054390D02*
X112259286Y-54006771D01*
X112259286Y-54006771D02*
X112211667Y-53911533D01*
X112211667Y-53911533D02*
X112211667Y-53816295D01*
X112211667Y-53816295D02*
X112259286Y-53721057D01*
X112259286Y-53721057D02*
X112306905Y-53673438D01*
X112306905Y-53673438D02*
X112402143Y-53625819D01*
X112402143Y-53625819D02*
X112640238Y-53625819D01*
X112640238Y-53625819D02*
X112783095Y-53673438D01*
X113116429Y-53625819D02*
X113354524Y-54625819D01*
X113354524Y-54625819D02*
X113545000Y-53911533D01*
X113545000Y-53911533D02*
X113735476Y-54625819D01*
X113735476Y-54625819D02*
X113973572Y-53625819D01*
X114878333Y-54625819D02*
X114306905Y-54625819D01*
X114592619Y-54625819D02*
X114592619Y-53625819D01*
X114592619Y-53625819D02*
X114497381Y-53768676D01*
X114497381Y-53768676D02*
X114402143Y-53863914D01*
X114402143Y-53863914D02*
X114306905Y-53911533D01*
%TO.C,J1*%
D11*
X125500000Y-114880000D02*
X126880000Y-114880000D01*
X126880000Y-113500000D02*
X126880000Y-114880000D01*
X124000000Y-103690000D02*
X162000000Y-103690000D01*
X162000000Y-115690000D01*
X124000000Y-115690000D01*
X124000000Y-103690000D01*
%TO.C,SW7*%
X121650000Y-85240000D02*
X135620000Y-85240000D01*
X121650000Y-99210000D02*
X121650000Y-85240000D01*
X135620000Y-85240000D02*
X135620000Y-99210000D01*
X135620000Y-99210000D02*
X121650000Y-99210000D01*
%TO.C,SW6*%
X121650000Y-70150000D02*
X135620000Y-70150000D01*
X121650000Y-84120000D02*
X121650000Y-70150000D01*
X135620000Y-70150000D02*
X135620000Y-84120000D01*
X135620000Y-84120000D02*
X121650000Y-84120000D01*
%TO.C,SW5*%
X121650000Y-55060000D02*
X135620000Y-55060000D01*
X121650000Y-69030000D02*
X121650000Y-55060000D01*
X135620000Y-55060000D02*
X135620000Y-69030000D01*
X135620000Y-69030000D02*
X121650000Y-69030000D01*
%TO.C,SW4*%
X106560000Y-100330000D02*
X120530000Y-100330000D01*
X106560000Y-114300000D02*
X106560000Y-100330000D01*
X120530000Y-100330000D02*
X120530000Y-114300000D01*
X120530000Y-114300000D02*
X106560000Y-114300000D01*
%TO.C,SW3*%
X106560000Y-85240000D02*
X120530000Y-85240000D01*
X106560000Y-99210000D02*
X106560000Y-85240000D01*
X120530000Y-85240000D02*
X120530000Y-99210000D01*
X120530000Y-99210000D02*
X106560000Y-99210000D01*
%TO.C,SW2*%
X106560000Y-70150000D02*
X120530000Y-70150000D01*
X106560000Y-84120000D02*
X106560000Y-70150000D01*
X120530000Y-70150000D02*
X120530000Y-84120000D01*
X120530000Y-84120000D02*
X106560000Y-84120000D01*
%TO.C,SW1*%
X106560000Y-55060000D02*
X120530000Y-55060000D01*
X106560000Y-69030000D02*
X106560000Y-55060000D01*
X120530000Y-55060000D02*
X120530000Y-69030000D01*
X120530000Y-69030000D02*
X106560000Y-69030000D01*
%TD*%
M02*
