M48
; DRILL file KiCad 10.0.3 date 2026-06-08T19:16:09
; FORMAT={-:-/ absolute / metric / decimal}
; #@! TF.CreationDate,2026-06-08T19:16:09+01:00
; #@! TF.GenerationSoftware,Kicad,Pcbnew,10.0.3
; #@! TF.FileFunction,NonPlated,1,2,NPTH
FMAT,2
METRIC
; #@! TA.AperFunction,NonPlated,NPTH,ComponentDrill
T1C1.700
; #@! TA.AperFunction,NonPlated,NPTH,ComponentDrill
T2C4.000
%
G90
G05
T1
X108.465Y-62.045
X108.465Y-77.135
X108.465Y-92.225
X108.465Y-107.315
X118.625Y-62.045
X118.625Y-77.135
X118.625Y-92.225
X118.625Y-107.315
X123.555Y-62.045
X123.555Y-77.135
X123.555Y-92.225
X133.715Y-62.045
X133.715Y-77.135
X133.715Y-92.225
T2
X113.545Y-62.045
X113.545Y-77.135
X113.545Y-92.225
X113.545Y-107.315
X128.635Y-62.045
X128.635Y-77.135
X128.635Y-92.225
M30
