M48
; DRILL file KiCad 10.0.3 date 2026-06-08T19:16:09
; FORMAT={-:-/ absolute / metric / decimal}
; #@! TF.CreationDate,2026-06-08T19:16:09+01:00
; #@! TF.GenerationSoftware,Kicad,Pcbnew,10.0.3
; #@! TF.FileFunction,Plated,1,2,PTH
FMAT,2
METRIC
; #@! TA.AperFunction,Plated,PTH,ViaDrill
T1C0.300
; #@! TA.AperFunction,Plated,PTH,ComponentDrill
T2C1.000
; #@! TA.AperFunction,Plated,PTH,ComponentDrill
T3C1.500
%
G90
G05
T1
X135.5Y-78.0
X138.5Y-78.0
X145.5Y-70.5
X146.5Y-68.0
X146.5Y-72.0
X147.0Y-81.0
X149.0Y-76.5
X149.5Y-65.5
X151.5Y-68.0
X152.0Y-78.9
X152.0Y-80.6
X152.5Y-65.0
X153.5Y-78.9
X153.5Y-81.0
T2
X125.5Y-105.88
X125.5Y-108.42
X125.5Y-110.96
X125.5Y-113.5
X140.309Y-59.368
X140.309Y-61.908
X140.309Y-64.448
X140.309Y-66.988
X140.309Y-69.528
X140.309Y-72.068
X140.309Y-74.608
X155.559Y-59.368
X155.559Y-61.908
X155.559Y-64.448
X155.559Y-66.988
X155.559Y-69.528
X155.559Y-72.068
X155.559Y-74.608
T3
X109.735Y-59.505
X109.735Y-74.595
X109.735Y-89.685
X109.735Y-104.775
X116.085Y-56.965
X116.085Y-72.055
X116.085Y-87.145
X116.085Y-102.235
X124.825Y-59.505
X124.825Y-74.595
X124.825Y-89.685
X131.175Y-56.965
X131.175Y-72.055
X131.175Y-87.145
M30
